<?xml version="1.0" encoding="utf-8"?>
<svg version="1.1" id="Layer_1" xmlns="http://www.w3.org/2000/svg" xmlns:xlink="http://www.w3.org/1999/xlink" x="0px" y="0px" viewBox="0 0 127 100" style="enable-background:new 0 0 127 100;" xml:space="preserve">
    <defs>
        <style>
            .st0{fill:#13457C;}
            .st1{fill-rule:evenodd;clip-rule:evenodd;fill:#FBB231;}
            .st2{fill-rule:evenodd;clip-rule:evenodd;fill:#EC1C2E;}
            .st3{fill-rule:evenodd;clip-rule:evenodd;fill:#FFFFFF;}
            .st4{fill:none;stroke:#FFFFFF;stroke-width:0.216;stroke-miterlimit:2.6131;}
        </style>
    </defs>
    <g>
        <path class="st0" d="M126.1,84.9c0,2.3-1.9,4.2-4.2,4.2H4.9c-2.3,0-4.2-1.9-4.2-4.2v-70c0-2.3,1.9-4.2,4.2-4.2H122c2.3,0,4.2,1.9,4.2,4.2V84.9z"/>
        <g>
            <polygon class="st1" points="78.5,72.3 79.6,72.3 80.8,72.2 81.9,72.1 83,71.9 84.1,71.6 85.2,71.3 86.2,71 87.3,70.6 88.3,70.1 89.2,69.6 90.2,69.1 91.1,68.5 92,67.9 92.8,67.2 93.6,66.5 94.4,65.7 95.2,65 95.9,64.1 96.5,63.3 97.2,62.4 97.8,61.5 98.3,60.5 98.8,59.6 99.3,58.6 99.7,57.5 100,56.5 100.3,55.4 100.6,54.3 100.8,53.2 100.9,52.1 101,51 101,49.8 101,48.6 100.9,47.5 100.8,46.4 100.6,45.3 100.3,44.2 100,43.1 99.7,42.1 99.3,41.1 98.8,40.1 98.3,39.1 97.8,38.2 97.2,37.2 96.5,36.4 95.9,35.5 95.2,34.7 94.4,33.9 93.6,33.2 92.8,32.5 92,31.8 91.1,31.2 90.2,30.6 89.2,30.1 88.3,29.6 87.3,29.1 86.2,28.7 85.2,28.3 84.1,28 83,27.8 81.9,27.6 80.8,27.5 79.6,27.4 78.5,27.3 77.3,27.4 76.2,27.5 75.1,27.6 73.9,27.8 72.9,28 71.8,28.3 70.7,28.7 69.7,29.1 68.7,29.6 67.8,30.1 66.8,30.6 65.9,31.2 65,31.8 64.2,32.5 63.4,33.2 62.6,33.9 61.8,34.7 61.1,35.5 60.5,36.4 59.8,37.2 59.3,38.2 58.7,39.1 58.2,40.1 57.8,41.1 57.4,42.1 57,43.1 56.7,44.2 56.5,45.3 56.3,46.4 56.1,47.5 56,48.6 56,49.8 56,51 56.1,52.1 56.3,53.2 56.5,54.3 56.7,55.4 57,56.5 57.4,57.5 57.8,58.6 58.2,59.6 58.7,60.5 59.3,61.5 59.8,62.4 60.5,63.3 61.1,64.1 61.8,65 62.6,65.7 63.4,66.5 64.2,67.2 65,67.9 65.9,68.5 66.8,69.1 67.8,69.6 68.7,70.1 69.7,70.6 70.7,71 71.8,71.3 72.9,71.6 73.9,71.9 75.1,72.1 76.2,72.2 77.3,72.3 78.5,72.3 78.5,72.3"/>
            <polygon class="st2" points="48.4,72.3 49.5,72.3 50.7,72.2 51.8,72.1 52.9,71.9 54,71.6 55.1,71.3 56.1,71 57.1,70.6 58.1,70.1 59.1,69.6 60,69.1 60.9,68.5 61.8,67.9 62.7,67.2 63.5,66.5 64.3,65.7 65,65 65.7,64.1 66.4,63.3 67,62.4 67.6,61.5 68.1,60.5 68.6,59.6 69.1,58.6 69.5,57.5 69.8,56.5 70.1,55.4 70.4,54.3 70.6,53.2 70.7,52.1 70.8,51 70.8,49.8 70.8,48.6 70.7,47.5 70.6,46.4 70.4,45.3 70.1,44.2 69.8,43.1 69.5,42.1 69.1,41.1 68.6,40.1 68.1,39.1 67.6,38.2 67,37.2 66.4,36.4 65.7,35.5 65,34.7 64.3,33.9 63.5,33.2 62.7,32.5 61.8,31.8 60.9,31.2 60,30.6 59.1,30.1 58.1,29.6 57.1,29.1 56.1,28.7 55.1,28.3 54,28 52.9,27.8 51.8,27.6 50.7,27.5 49.5,27.4 48.4,27.3 47.2,27.4 46.1,27.5 44.9,27.6 43.8,27.8 42.7,28 41.7,28.3 40.6,28.7 39.6,29.1 38.6,29.6 37.6,30.1 36.7,30.6 35.8,31.2 34.9,31.8 34,32.5 33.2,33.2 32.4,33.9 31.7,34.7 31,35.5 30.3,36.4 29.7,37.2 29.1,38.2 28.5,39.1 28.1,40.1 27.6,41.1 27.2,42.1 26.8,43.1 26.5,44.2 26.3,45.3 26.1,46.4 25.9,47.5 25.9,48.6 25.8,49.8 25.9,51 25.9,52.1 26.1,53.2 26.3,54.3 26.5,55.4 26.8,56.5 27.2,57.5 27.6,58.6 28.1,59.6 28.5,60.5 29.1,61.5 29.7,62.4 30.3,63.3 31,64.1 31.7,65 32.4,65.7 33.2,66.5 34,67.2 34.9,67.9 35.8,68.5 36.7,69.1 37.6,69.6 38.6,70.1 39.6,70.6 40.6,71 41.7,71.3 42.7,71.6 43.8,71.9 44.9,72.1 46.1,72.2 47.2,72.3 48.4,72.3 48.4,72.3"/>
            <polygon class="st1" points="60.8,36 72.7,36 72.7,34.7 61.8,34.7 60.8,36 60.8,36"/>
            <polygon class="st1" points="59,38.7 72.7,38.7 72.7,37.5 59.7,37.5 59,38.7 59,38.7"/>
            <polygon class="st1" points="57.7,41.4 72.7,41.4 72.7,40.2 58.2,40.2 57.7,41.4 57.7,41.4"/>
            <polygon class="st1" points="56.7,44.1 72.7,44.1 72.7,42.9 57.1,42.9 56.7,44.1 56.7,44.1"/>
            <polygon class="st1" points="57.3,57.2 72.8,57.2 72.8,56 56.9,56 57.3,57.2 57.3,57.2"/>
            <polygon class="st1" points="58.4,60 72.8,60 72.8,58.7 57.9,58.7 58.4,60 58.4,60"/>
            <polygon class="st1" points="60,62.7 72.8,62.7 72.8,61.4 59.3,61.4 60,62.7 60,62.7"/>
            <polygon class="st1" points="62.2,65.4 72.8,65.4 72.8,64.2 61.2,64.2 62.2,65.4 62.2,65.4"/>
            <polygon class="st1" points="56.2,46.8 72.7,46.8 72.7,45.6 56.4,45.6 56.2,46.8 56.2,46.8"/>
            <polygon class="st1" points="66.3,54.5 72.6,54.5 72.6,53.3 66.5,53.3 66.3,54.5 66.3,54.5"/>
            <polygon class="st1" points="66.8,51.8 72.6,51.8 72.6,50.6 67,50.6 66.8,51.8 66.8,51.8"/>
            <polygon class="st1" points="55.8,50.6 57.4,50.6 57.4,51.8 55.9,51.8 55.8,50.6 55.8,50.6"/>
            <polygon class="st3" points="52.7,49.1 52.6,49.1 52.5,49.1 52.4,49.1 52.3,49.1 52.2,49 52.1,49 52,49 51.9,49 51.8,49 51.7,49 51.6,49 51.4,49 51.3,49 51.1,49 50.9,49 50.7,49 50.5,49 50.4,49 50.2,49.1 50.1,49.1 50,49.2 49.9,49.2 49.8,49.3 49.8,49.4 49.7,49.5 49.7,49.6 49.7,49.7 49.7,49.7 49.7,49.8 49.7,49.9 49.8,50 49.9,50.1 50,50.3 50.2,50.4 50.4,50.5 50.6,50.6 50.9,50.7 51.1,50.7 51.4,50.8 51.6,50.9 51.9,51.1 52.1,51.2 52.3,51.4 52.4,51.6 52.5,51.9 52.6,52.3 52.6,52.7 52.6,53.2 52.6,53.5 52.5,53.8 52.3,54.1 52.2,54.4 52,54.6 51.8,54.8 51.6,54.9 51.4,55.1 51.1,55.2 50.9,55.3 50.6,55.4 50.4,55.4 50.1,55.5 49.9,55.5 49.6,55.5 49.4,55.5 49,55.5 48.7,55.5 48.5,55.5 48.2,55.5 48,55.5 47.8,55.5 47.6,55.5 47.4,55.5 47.3,55.4 47.1,55.4 47,55.4 46.9,55.3 46.7,55.3 46.6,55.3 46.5,55.2 46.4,55.2 46.7,53.5 46.8,53.5 46.8,53.5 47,53.6 47.1,53.6 47.2,53.6 47.4,53.7 47.5,53.7 47.7,53.7 47.9,53.8 48.1,53.8 48.3,53.8 48.5,53.8 48.7,53.8 49,53.9 49.2,53.9 49.4,53.8 49.6,53.8 49.8,53.7 49.9,53.7 50,53.5 50.1,53.4 50.2,53.3 50.2,53.2 50.2,53.1 50.3,52.9 50.2,52.7 50.1,52.5 49.9,52.4 49.6,52.3 49.4,52.2 49.1,52.1 48.8,51.9 48.5,51.8 48.2,51.6 47.9,51.4 47.7,51.2 47.5,50.9 47.4,50.6 47.3,50.2 47.3,49.7 47.3,49.4 47.4,49.1 47.5,48.8 47.6,48.6 47.7,48.4 47.8,48.2 48,48 48.2,47.8 48.4,47.7 48.6,47.6 48.9,47.4 49.2,47.4 49.5,47.3 49.9,47.2 50.3,47.2 50.8,47.2 51.1,47.2 51.3,47.2 51.6,47.2 51.8,47.2 52,47.2 52.1,47.3 52.3,47.3 52.4,47.3 52.5,47.3 52.7,47.3 52.8,47.3 52.8,47.4 52.9,47.4 53,47.4 53.1,47.4 53.1,47.4 52.7,49.1 52.7,49.1"/>
            <polyline class="st4" points="52.7,49.1 52.7,49.1 52.6,49.1 52.5,49.1 52.4,49.1 52.3,49.1 52.2,49 52.1,49 52,49 51.9,49 51.8,49 51.7,49 51.6,49 51.4,49 51.3,49 51.1,49 50.9,49 50.7,49 50.7,49 50.5,49 50.4,49 50.2,49.1 50.1,49.1 50,49.2 49.9,49.2 49.8,49.3 49.8,49.4 49.7,49.5 49.7,49.6 49.7,49.7 49.7,49.7 49.7,49.8 49.7,49.9 49.8,50 49.9,50.1 49.9,50.1 50,50.3 50.2,50.4 50.4,50.5 50.6,50.6 50.9,50.7 51.1,50.7 51.4,50.8 51.6,50.9 51.9,51.1 52.1,51.2 52.3,51.4 52.4,51.6 52.5,51.9 52.6,52.3 52.6,52.7 52.6,53.2 52.6,53.2 52.6,53.5 52.5,53.8 52.3,54.1 52.2,54.4 52,54.6 51.8,54.8 51.6,54.9 51.4,55.1 51.1,55.2 50.9,55.3 50.6,55.4 50.4,55.4 50.1,55.5 49.9,55.5 49.6,55.5 49.4,55.5 49.4,55.5 49,55.5 48.7,55.5 48.5,55.5 48.2,55.5 48,55.5 47.8,55.5 47.6,55.5 47.4,55.5 47.3,55.4 47.1,55.4 47,55.4 46.9,55.3 46.7,55.3 46.6,55.3 46.5,55.2 46.4,55.2 46.7,53.5 46.7,53.5 46.8,53.5 46.8,53.5 47,53.6 47.1,53.6 47.2,53.6 47.4,53.7 47.5,53.7 47.7,53.7 47.9,53.8 48.1,53.8 48.3,53.8 48.5,53.8 48.7,53.8 49,53.9 49.2,53.9 49.4,53.8 49.4,53.8 49.6,53.8 49.8,53.7 49.9,53.7 50,53.5 50.1,53.4 50.2,53.3 50.2,53.2 50.2,53.1 50.2,53.1 50.3,52.9 50.2,52.7 50.1,52.5 49.9,52.4 49.6,52.3 49.4,52.2 49.1,52.1 48.8,51.9 48.5,51.8 48.2,51.6 47.9,51.4 47.7,51.2 47.5,50.9 47.4,50.6 47.3,50.2 47.3,49.7 47.3,49.7 47.3,49.4 47.4,49.1 47.5,48.8 47.6,48.6 47.7,48.4 47.8,48.2 48,48 48.2,47.8 48.4,47.7 48.6,47.6 48.9,47.4 49.2,47.4 49.5,47.3 49.9,47.2 50.3,47.2 50.8,47.2 50.8,47.2 51.1,47.2 51.3,47.2 51.6,47.2 51.8,47.2 52,47.2 52.1,47.3 52.3,47.3 52.4,47.3 52.5,47.3 52.7,47.3 52.8,47.3 52.8,47.4 52.9,47.4 53,47.4 53.1,47.4 53.1,47.4 52.7,49.1"/>
            <polygon class="st3" points="54.5,45.5 56.6,45.5 56.3,47.4 57.6,47.4 57.3,49.1 56,49 55.2,53.3 55.2,53.4 55.3,53.6 55.4,53.7 55.5,53.7 55.6,53.8 55.7,53.8 55.9,53.9 56.1,53.9 56.3,53.9 56.4,53.9 56.5,53.8 56.7,53.8 56.8,53.8 56.8,53.8 56.9,53.7 56.9,53.7 56.6,55.1 56.6,55.2 56.5,55.2 56.5,55.2 56.4,55.3 56.4,55.3 56.3,55.3 56.2,55.3 56.2,55.4 56.1,55.4 56,55.4 55.9,55.4 55.8,55.4 55.7,55.4 55.6,55.5 55.5,55.5 55.4,55.5 54.8,55.5 54.5,55.5 54.2,55.4 54,55.4 53.8,55.3 53.6,55.3 53.5,55.2 53.3,55.1 53.2,55 53.2,54.9 53.1,54.8 53.1,54.6 53,54.5 53,54.3 53,54.2 53.1,54 53.1,53.8 54.5,45.5 54.5,45.5"/>
            <polyline class="st4" points="54.5,45.5 56.6,45.5 56.3,47.4 57.6,47.4 57.3,49.1 56,49 55.2,53.3 55.2,53.3 55.2,53.4 55.3,53.6 55.4,53.7 55.5,53.7 55.6,53.8 55.7,53.8 55.9,53.9 56.1,53.9 56.1,53.9 56.3,53.9 56.4,53.9 56.5,53.8 56.7,53.8 56.8,53.8 56.8,53.8 56.9,53.7 56.9,53.7 56.6,55.1 56.6,55.1 56.6,55.2 56.5,55.2 56.5,55.2 56.4,55.3 56.4,55.3 56.3,55.3 56.2,55.3 56.2,55.4 56.1,55.4 56,55.4 55.9,55.4 55.8,55.4 55.7,55.4 55.6,55.5 55.5,55.5 55.4,55.5 54.8,55.5 54.8,55.5 54.5,55.5 54.2,55.4 54,55.4 53.8,55.3 53.6,55.3 53.5,55.2 53.3,55.1 53.2,55 53.2,54.9 53.1,54.8 53.1,54.6 53,54.5 53,54.3 53,54.2 53.1,54 53.1,53.8 54.5,45.5"/>
            <polyline class="st4" points="59.3,51.9 59.3,51.9 59.2,52.1 59.2,52.2 59.2,52.3 59.3,52.5 59.3,52.6 59.4,52.8 59.5,52.9 59.6,53 59.7,53.2 59.8,53.3 59.9,53.4 60,53.5 60.2,53.6 60.3,53.6 60.5,53.7 60.6,53.7 60.6,53.7 60.8,53.8 61,53.8 61.2,53.8 61.4,53.8 61.6,53.8 61.8,53.8 62,53.8 62.2,53.8 62.4,53.8 62.6,53.7 62.8,53.7 63.1,53.6 63.3,53.5 63.5,53.4 63.7,53.3 63.9,53.2 63.6,55.1 63.6,55.1 63.5,55.1 63.4,55.2 63.2,55.2 63.1,55.3 63,55.3 62.9,55.4 62.8,55.4 62.7,55.4 62.5,55.4 62.4,55.4 62.2,55.5 62,55.5 61.8,55.5 61.6,55.5 61.4,55.5 61.1,55.5 61.1,55.5 60.8,55.5 60.4,55.4 60,55.4 59.6,55.3 59.3,55.2 58.9,55 58.6,54.9 58.2,54.6 57.9,54.4 57.7,54.1 57.5,53.7 57.3,53.3 57.2,52.9 57.1,52.4 57,51.8 57.1,51.2 57.1,51.2 57.1,50.9 57.2,50.6 57.2,50.4 57.3,50 57.4,49.7 57.6,49.4 57.7,49 57.9,48.7 58.2,48.4 58.5,48.1 58.8,47.9 59.2,47.6 59.6,47.5 60.1,47.3 60.7,47.2 61.3,47.2 61.3,47.2 61.6,47.2 61.9,47.2 62.2,47.3 62.5,47.4 62.8,47.5 63.1,47.6 63.4,47.8 63.6,48 63.9,48.3 64.1,48.6 64.2,48.9 64.3,49.3 64.4,49.8 64.4,50.3 64.3,50.9 64.2,51.5 64.2,52 58.7,52 59,50.5 62.3,50.5 62.3,50.5 62.3,50.3 62.3,50.1 62.3,49.9 62.3,49.8 62.2,49.6 62.2,49.5 62.1,49.4 62,49.3 61.9,49.2 61.8,49.1 61.7,49.1 61.6,49 61.5,49 61.4,48.9 61.2,48.9 61.1,48.9 61.1,48.9 61,48.9 60.8,48.9 60.7,48.9 60.6,49 60.4,49.1 60.3,49.1 60.2,49.2 60.1,49.3 60,49.4 59.9,49.5 59.8,49.6 59.8,49.8 59.7,49.9 59.6,50.1 59.6,50.2 59.6,50.4 59.3,51.9"/>
            <polygon class="st3" points="77.4,47.8 77.3,47.8 77.2,47.7 77.1,47.7 77,47.6 76.8,47.6 76.7,47.5 76.6,47.5 76.4,47.4 76.3,47.4 76.2,47.4 76,47.3 75.8,47.3 75.7,47.3 75.5,47.3 75.3,47.3 75.1,47.3 74.9,47.3 74.7,47.3 74.5,47.3 74.3,47.4 74.1,47.4 73.9,47.5 73.7,47.6 73.5,47.7 73.3,47.9 73.1,48.1 72.9,48.3 72.7,48.6 72.5,49 72.4,49.3 72.2,49.8 72.1,50.3 72,50.5 72,50.8 72,51.1 72,51.3 72,51.6 72.1,51.8 72.2,52 72.2,52.3 72.4,52.5 72.5,52.7 72.6,52.8 72.8,53 73,53.1 73.3,53.3 73.5,53.4 73.8,53.4 73.9,53.4 74,53.5 74.2,53.5 74.3,53.5 74.5,53.5 74.7,53.5 74.8,53.5 75,53.5 75.2,53.5 75.4,53.4 75.6,53.4 75.8,53.3 76,53.2 76.2,53.1 76.3,53 76.5,52.9 76.1,54.9 76.1,55 76.1,55 76,55.1 75.9,55.1 75.8,55.2 75.7,55.2 75.6,55.3 75.5,55.3 75.3,55.4 75.1,55.4 74.9,55.4 74.6,55.5 74.3,55.5 74,55.5 73.6,55.5 73.2,55.5 72.8,55.4 72.5,55.3 72.1,55.2 71.8,55.1 71.4,54.9 71.1,54.7 70.8,54.4 70.5,54.1 70.3,53.8 70.1,53.4 69.9,52.9 69.7,52.5 69.7,52 69.6,51.4 69.6,50.8 69.7,50.2 69.8,49.9 69.9,49.6 69.9,49.3 70,49 70.1,48.8 70.2,48.5 70.3,48.2 70.4,48 70.5,47.8 70.6,47.5 70.7,47.3 70.9,47.1 71,47 71.2,46.8 71.3,46.6 71.5,46.4 71.7,46.3 71.8,46.1 72,46 72.2,45.9 72.4,45.8 72.6,45.7 72.8,45.6 73.1,45.5 73.3,45.4 73.5,45.4 73.8,45.3 74,45.3 74.3,45.2 74.6,45.2 74.8,45.2 75.1,45.2 75.4,45.2 75.6,45.2 75.8,45.2 76,45.3 76.3,45.3 76.5,45.3 76.7,45.4 76.8,45.4 77,45.5 77.2,45.5 77.3,45.6 77.4,45.6 77.5,45.6 77.6,45.7 77.7,45.7 77.7,45.7 77.4,47.8 77.4,47.8"/>
            <polyline class="st4" points="77.4,47.8 77.4,47.8 77.3,47.8 77.2,47.7 77.1,47.7 77,47.6 76.8,47.6 76.7,47.5 76.6,47.5 76.4,47.4 76.3,47.4 76.2,47.4 76,47.3 75.8,47.3 75.7,47.3 75.5,47.3 75.3,47.3 75.1,47.3 75.1,47.3 74.9,47.3 74.7,47.3 74.5,47.3 74.3,47.4 74.1,47.4 73.9,47.5 73.7,47.6 73.5,47.7 73.3,47.9 73.1,48.1 72.9,48.3 72.7,48.6 72.5,49 72.4,49.3 72.2,49.8 72.1,50.3 72.1,50.3 72,50.5 72,50.8 72,51.1 72,51.3 72,51.6 72.1,51.8 72.2,52 72.2,52.3 72.4,52.5 72.5,52.7 72.6,52.8 72.8,53 73,53.1 73.3,53.3 73.5,53.4 73.8,53.4 73.8,53.4 73.9,53.4 74,53.5 74.2,53.5 74.3,53.5 74.5,53.5 74.7,53.5 74.8,53.5 75,53.5 75.2,53.5 75.4,53.4 75.6,53.4 75.8,53.3 76,53.2 76.2,53.1 76.3,53 76.5,52.9 76.1,54.9 76.1,54.9 76.1,55 76.1,55 76,55.1 75.9,55.1 75.8,55.2 75.7,55.2 75.6,55.3 75.5,55.3 75.3,55.4 75.1,55.4 74.9,55.4 74.6,55.5 74.3,55.5 74,55.5 73.6,55.5 73.2,55.5 73.2,55.5 72.8,55.4 72.5,55.3 72.1,55.2 71.8,55.1 71.4,54.9 71.1,54.7 70.8,54.4 70.5,54.1 70.3,53.8 70.1,53.4 69.9,52.9 69.7,52.5 69.7,52 69.6,51.4 69.6,50.8 69.7,50.2 69.7,50.2 69.8,49.9 69.9,49.6 69.9,49.3 70,49 70.1,48.8 70.2,48.5 70.3,48.2 70.4,48 70.5,47.8 70.6,47.5 70.7,47.3 70.9,47.1 71,47 71.2,46.8 71.3,46.6 71.5,46.4 71.7,46.3 71.8,46.1 72,46 72.2,45.9 72.4,45.8 72.6,45.7 72.8,45.6 73.1,45.5 73.3,45.4 73.5,45.4 73.8,45.3 74,45.3 74.3,45.2 74.6,45.2 74.8,45.2 75.1,45.2 75.1,45.2 75.4,45.2 75.6,45.2 75.8,45.2 76,45.3 76.3,45.3 76.5,45.3 76.7,45.4 76.8,45.4 77,45.5 77.2,45.5 77.3,45.6 77.4,45.6 77.5,45.6 77.6,45.7 77.7,45.7 77.7,45.7 77.4,47.8"/>
            <polygon class="st3" points="96.1,55.5 94,55.5 94.1,54.6 94.1,54.6 94,54.7 93.9,54.9 93.7,55 93.6,55.1 93.5,55.2 93.3,55.3 93.2,55.3 93,55.4 92.9,55.5 92.7,55.5 92.6,55.5 92.5,55.6 92.3,55.6 92.2,55.6 92,55.6 91.9,55.6 91.5,55.6 91.1,55.5 90.8,55.4 90.5,55.2 90.2,55 89.9,54.7 89.7,54.4 89.5,54.1 89.4,53.8 89.3,53.4 89.2,53 89.1,52.7 89.1,52.3 89.1,51.9 89.2,51.5 89.2,51.1 89.3,50.6 89.5,50.2 89.6,49.8 89.8,49.5 90,49.1 90.2,48.8 90.5,48.6 90.7,48.3 91,48.1 91.3,47.9 91.6,47.7 91.9,47.6 92.2,47.5 92.5,47.4 92.8,47.4 93.1,47.4 93.3,47.4 93.5,47.4 93.7,47.4 93.9,47.5 94.1,47.5 94.2,47.6 94.4,47.7 94.5,47.8 94.6,47.9 94.7,48 94.8,48.1 94.9,48.2 95,48.3 95.1,48.4 95.1,48.5 95.2,48.5 95.2,48.5 95.7,45.6 97.8,45.6 96.1,55.5 96.1,55.5"/>
            <polyline class="st4" points="96.1,55.5 94,55.5 94.1,54.6 94.1,54.6 94.1,54.6 94,54.7 93.9,54.9 93.7,55 93.6,55.1 93.5,55.2 93.3,55.3 93.2,55.3 93,55.4 92.9,55.5 92.7,55.5 92.6,55.5 92.5,55.6 92.3,55.6 92.2,55.6 92,55.6 91.9,55.6 91.9,55.6 91.5,55.6 91.1,55.5 90.8,55.4 90.5,55.2 90.2,55 89.9,54.7 89.7,54.4 89.5,54.1 89.4,53.8 89.3,53.4 89.2,53 89.1,52.7 89.1,52.3 89.1,51.9 89.2,51.5 89.2,51.1 89.2,51.1 89.3,50.6 89.5,50.2 89.6,49.8 89.8,49.5 90,49.1 90.2,48.8 90.5,48.6 90.7,48.3 91,48.1 91.3,47.9 91.6,47.7 91.9,47.6 92.2,47.5 92.5,47.4 92.8,47.4 93.1,47.4 93.1,47.4 93.3,47.4 93.5,47.4 93.7,47.4 93.9,47.5 94.1,47.5 94.2,47.6 94.4,47.7 94.5,47.8 94.6,47.9 94.7,48 94.8,48.1 94.9,48.2 95,48.3 95.1,48.4 95.1,48.5 95.2,48.5 95.2,48.5 95.7,45.6 97.8,45.6 96.1,55.5"/>
            <polygon class="st1" points="92.6,53.7 92.8,53.6 93,53.6 93.2,53.5 93.4,53.5 93.5,53.4 93.7,53.3 93.8,53.1 94,53 94.1,52.8 94.2,52.7 94.3,52.5 94.4,52.3 94.4,52.1 94.5,51.9 94.6,51.7 94.6,51.5 94.6,51.3 94.7,51.1 94.7,50.9 94.7,50.7 94.6,50.5 94.6,50.3 94.5,50.1 94.5,49.9 94.4,49.8 94.3,49.6 94.2,49.5 94.1,49.4 94,49.3 93.8,49.2 93.7,49.2 93.5,49.2 93.3,49.2 93.1,49.2 93,49.3 92.8,49.4 92.6,49.5 92.5,49.6 92.4,49.7 92.2,49.9 92.1,50 92,50.2 91.9,50.4 91.8,50.6 91.8,50.8 91.7,51 91.6,51.2 91.6,51.4 91.5,51.8 91.6,52.1 91.6,52.5 91.7,52.9 91.9,53.2 92.1,53.4 92.3,53.6 92.6,53.7 92.6,53.7"/>
            <polygon class="st3" points="46,53.8 45.7,55.5 43.8,55.5 43.8,55.2 43.9,54.9 43.9,54.7 43.9,54.6 43.8,54.7 43.7,54.8 43.6,54.9 43.4,55 43.2,55.1 43,55.2 42.8,55.3 42.6,55.4 42.4,55.5 42.2,55.5 42,55.6 41.7,55.6 41.5,55.6 41.3,55.6 41.1,55.6 40.9,55.6 40.6,55.5 40.4,55.4 40.2,55.3 40,55.2 39.8,55.1 39.7,55 39.5,54.8 39.4,54.7 39.3,54.5 39.3,54.3 39.2,54.2 39.2,54 39.1,53.8 39.1,53.6 39.1,53.5 39.1,53.3 39.1,53 39.2,52.7 39.2,52.5 39.3,52.2 39.5,52 39.6,51.7 39.7,51.5 39.9,51.3 40.1,51.2 40.3,51 40.6,50.9 40.8,50.7 41,50.6 41.3,50.6 41.5,50.5 41.8,50.4 41.8,50.4 41.9,50.4 41.9,50.4 42,50.4 42.1,50.4 42.2,50.4 42.3,50.4 42.4,50.4 42.6,50.4 42.7,50.3 42.8,50.3 42.9,50.3 43.1,50.3 43.2,50.3 43.3,50.3 43.4,50.3 43.5,50.3 43.7,50.3 43.9,50.3 44.1,50.3 44.2,50.3 44.3,50.3 44.4,50.3 44.4,50.3 44.4,50.3 44.5,50.1 44.5,50 44.5,49.8 44.5,49.7 44.4,49.5 44.3,49.4 44.2,49.3 44.1,49.2 43.9,49.1 43.7,49.1 43.5,49 43.3,49 43.1,49 42.8,49 42.6,49 42.4,49 42.1,49.1 41.9,49.1 41.6,49.1 41.4,49.2 41.2,49.2 41,49.2 40.8,49.3 40.6,49.3 40.5,49.4 40.4,49.4 40.3,49.5 40.8,47.6 41,47.6 41.2,47.5 41.4,47.4 41.5,47.4 41.7,47.4 41.9,47.3 42.1,47.3 42.3,47.3 42.5,47.3 42.8,47.3 43,47.3 43.2,47.3 43.5,47.3 43.7,47.3 44,47.3 44.2,47.3 44.5,47.3 44.7,47.3 44.9,47.4 45.2,47.5 45.4,47.5 45.6,47.6 45.9,47.8 46.1,47.9 46.3,48.1 46.4,48.3 46.6,48.5 46.7,48.7 46.8,48.9 46.8,49.2 46.8,49.5 46.8,49.8 46,53.8 46,53.8"/>
            <polyline class="st4" points="46,53.8 45.7,55.5 43.8,55.5 43.8,55.5 43.8,55.2 43.9,54.9 43.9,54.7 43.9,54.6 43.9,54.6 43.8,54.7 43.7,54.8 43.6,54.9 43.4,55 43.2,55.1 43,55.2 42.8,55.3 42.6,55.4 42.4,55.5 42.2,55.5 42,55.6 41.7,55.6 41.5,55.6 41.3,55.6 41.1,55.6 40.9,55.6 40.9,55.6 40.6,55.5 40.4,55.4 40.2,55.3 40,55.2 39.8,55.1 39.7,55 39.5,54.8 39.4,54.7 39.3,54.5 39.3,54.3 39.2,54.2 39.2,54 39.1,53.8 39.1,53.6 39.1,53.5 39.1,53.3 39.1,53.3 39.1,53 39.2,52.7 39.2,52.5 39.3,52.2 39.5,52 39.6,51.7 39.7,51.5 39.9,51.3 40.1,51.2 40.3,51 40.6,50.9 40.8,50.7 41,50.6 41.3,50.6 41.5,50.5 41.8,50.4 41.8,50.4 41.8,50.4 41.9,50.4 41.9,50.4 42,50.4 42.1,50.4 42.2,50.4 42.3,50.4 42.4,50.4 42.6,50.4 42.7,50.3 42.8,50.3 42.9,50.3 43.1,50.3 43.2,50.3 43.3,50.3 43.4,50.3 43.4,50.3 43.5,50.3 43.7,50.3 43.9,50.3 44.1,50.3 44.2,50.3 44.3,50.3 44.4,50.3 44.4,50.3 44.4,50.3 44.4,50.3 44.5,50.1 44.5,50 44.5,49.8 44.5,49.8 44.5,49.7 44.4,49.5 44.3,49.4 44.2,49.3 44.1,49.2 43.9,49.1 43.7,49.1 43.5,49 43.5,49 43.3,49 43.1,49 42.8,49 42.6,49 42.4,49 42.1,49.1 41.9,49.1 41.6,49.1 41.4,49.2 41.2,49.2 41,49.2 40.8,49.3 40.6,49.3 40.5,49.4 40.4,49.4 40.3,49.5 40.8,47.6 40.8,47.6 41,47.6 41.2,47.5 41.4,47.4 41.5,47.4 41.7,47.4 41.9,47.3 42.1,47.3 42.3,47.3 42.5,47.3 42.8,47.3 43,47.3 43.2,47.3 43.5,47.3 43.7,47.3 44,47.3 44.2,47.3 44.2,47.3 44.5,47.3 44.7,47.3 44.9,47.4 45.2,47.5 45.4,47.5 45.6,47.6 45.9,47.8 46.1,47.9 46.3,48.1 46.4,48.3 46.6,48.5 46.7,48.7 46.8,48.9 46.8,49.2 46.8,49.5 46.8,49.8 46,53.8"/>
            <polygon class="st2" points="44.2,51.8 44.2,51.8 44.1,51.7 44.1,51.7 44,51.7 43.9,51.7 43.8,51.7 43.7,51.7 43.6,51.7 43.5,51.7 43.4,51.7 43.2,51.7 43.1,51.7 43,51.8 42.9,51.8 42.8,51.8 42.7,51.8 42.7,51.8 42.6,51.9 42.5,51.9 42.4,51.9 42.3,52 42.2,52 42.1,52.1 42,52.1 41.9,52.2 41.8,52.3 41.7,52.4 41.7,52.5 41.6,52.6 41.5,52.7 41.5,52.8 41.5,52.9 41.4,53.2 41.5,53.4 41.6,53.5 41.7,53.7 41.8,53.7 41.9,53.8 42,53.8 42.1,53.8 42.4,53.8 42.6,53.8 42.8,53.7 43,53.7 43.1,53.6 43.2,53.6 43.4,53.5 43.5,53.4 43.6,53.3 43.7,53.3 43.8,53.2 43.8,53.1 43.9,53 43.9,52.9 44,52.8 44,52.7 44,52.5 44.1,52.3 44.1,52 44.2,51.8 44.2,51.8"/>
            <polygon class="st3" points="30,55.5 28,55.5 29.7,45.5 33.3,45.5 33.6,51.4 36.1,45.5 39.9,45.5 38.1,55.5 36,55.5 37.3,48 37.3,48 34.2,55.5 31.8,55.5 31.8,55.2 31.8,54.4 31.7,53.2 31.6,51.8 31.5,50.5 31.5,49.3 31.4,48.4 31.4,48 31.4,48 31.3,48 31.3,48 31.3,48 30,55.5 30,55.5"/>
            <polyline class="st4" points="30,55.5 28,55.5 29.7,45.5 33.3,45.5 33.6,51.4 36.1,45.5 39.9,45.5 38.1,55.5 36,55.5 37.3,48 37.3,48 34.2,55.5 31.8,55.5 31.8,55.5 31.8,55.2 31.8,54.4 31.7,53.2 31.6,51.8 31.5,50.5 31.5,49.3 31.4,48.4 31.4,48 31.4,48 31.4,48 31.3,48 31.3,48 31.3,48 30,55.5"/>
            <polygon class="st3" points="83.7,53.8 83.4,55.5 81.5,55.5 81.5,55.2 81.5,54.9 81.5,54.7 81.5,54.6 81.4,54.7 81.3,54.8 81.1,54.9 81,55.1 80.8,55.1 80.7,55.2 80.5,55.3 80.3,55.4 80.1,55.5 79.9,55.5 79.6,55.6 79.4,55.6 79.2,55.6 79,55.6 78.8,55.6 78.6,55.6 78.3,55.5 78.1,55.4 77.9,55.3 77.7,55.2 77.5,55.1 77.4,55 77.2,54.8 77.1,54.7 77,54.5 77,54.3 76.9,54.2 76.9,54 76.8,53.8 76.8,53.6 76.8,53.5 76.8,53.3 76.8,53 76.9,52.7 76.9,52.5 77,52.2 77.1,52 77.3,51.7 77.4,51.5 77.6,51.3 77.8,51.2 78,51 78.2,50.9 78.5,50.7 78.7,50.6 79,50.6 79.2,50.5 79.5,50.4 79.5,50.4 79.5,50.4 79.6,50.4 79.7,50.4 79.8,50.4 79.9,50.4 80,50.4 80.1,50.4 80.2,50.4 80.4,50.3 80.5,50.3 80.6,50.3 80.7,50.3 80.8,50.3 81,50.3 81,50.3 81.2,50.3 81.4,50.3 81.6,50.3 81.7,50.3 81.9,50.3 82,50.3 82.1,50.3 82.1,50.3 82.1,50.3 82.1,50.1 82.2,50 82.2,49.8 82.2,49.7 82.1,49.5 82,49.4 81.9,49.3 81.7,49.2 81.6,49.1 81.4,49.1 81.2,49 81,49 80.8,49 80.6,49 80.3,49 80.1,49 79.8,49.1 79.6,49.1 79.3,49.1 79.1,49.2 78.9,49.2 78.7,49.2 78.5,49.3 78.3,49.3 78.2,49.4 78.1,49.4 78,49.5 78.6,47.6 78.7,47.6 78.9,47.5 79.1,47.4 79.3,47.4 79.4,47.4 79.6,47.3 79.8,47.3 80,47.3 80.2,47.3 80.5,47.3 80.7,47.3 80.9,47.3 81.2,47.3 81.4,47.3 81.7,47.3 81.9,47.3 82.1,47.3 82.4,47.3 82.6,47.4 82.8,47.5 83.1,47.5 83.3,47.6 83.5,47.8 83.7,47.9 83.9,48.1 84.1,48.3 84.3,48.5 84.4,48.7 84.5,48.9 84.5,49.2 84.5,49.5 84.5,49.8 83.7,53.8 83.7,53.8"/>
            <polygon class="st3" points="83.4,55.5 83.4,55.5 83.7,53.8 83.6,53.8 83.3,55.5 83.4,55.4 83.4,55.5 83.4,55.5 83.4,55.5 83.4,55.5 83.4,55.5"/>
            <polygon class="st3" points="81.4,55.5 81.5,55.5 83.4,55.5 83.4,55.4 81.5,55.4 81.5,55.5 81.4,55.5 81.4,55.5 81.5,55.5 81.4,55.5 81.4,55.5"/>
            <polygon class="st3" points="81.5,54.6 81.5,54.6 81.4,54.7 81.4,54.9 81.4,55.2 81.4,55.5 81.5,55.5 81.5,55.2 81.5,54.9 81.5,54.7 81.5,54.6 81.5,54.6 81.5,54.6 81.5,54.6"/>
            <polygon class="st3" points="78.6,55.6 78.6,55.6 78.8,55.6 79,55.7 79.2,55.7 79.4,55.6 79.7,55.6 79.9,55.6 80.1,55.5 80.3,55.5 80.5,55.4 80.7,55.3 80.9,55.2 81,55.1 81.2,55 81.3,54.9 81.4,54.8 81.5,54.6 81.5,54.6 81.4,54.7 81.3,54.8 81.1,54.9 81,55 80.8,55.1 80.6,55.2 80.5,55.3 80.3,55.4 80.1,55.4 79.9,55.5 79.6,55.5 79.4,55.6 79.2,55.6 79,55.6 78.8,55.6 78.6,55.5 78.6,55.5 78.6,55.6 78.6,55.6"/>
            <polygon class="st3" points="76.7,53.3 76.7,53.3 76.8,53.5 76.8,53.6 76.8,53.8 76.8,54 76.9,54.2 76.9,54.3 77,54.5 77.1,54.7 77.2,54.8 77.3,55 77.5,55.1 77.6,55.2 77.8,55.4 78.1,55.5 78.3,55.5 78.6,55.6 78.6,55.5 78.3,55.5 78.1,55.4 77.9,55.3 77.7,55.2 77.5,55.1 77.4,54.9 77.3,54.8 77.2,54.6 77.1,54.5 77,54.3 77,54.2 76.9,54 76.9,53.8 76.9,53.6 76.8,53.5 76.9,53.3 76.9,53.3 76.7,53.3 76.7,53.3"/>
            <polygon class="st3" points="79.5,50.4 79.5,50.4 79.2,50.4 78.9,50.5 78.7,50.6 78.5,50.7 78.2,50.8 78,51 77.8,51.1 77.6,51.3 77.4,51.5 77.2,51.7 77.1,51.9 77,52.2 76.9,52.5 76.8,52.7 76.8,53 76.7,53.3 76.9,53.3 76.9,53 76.9,52.7 77,52.5 77.1,52.2 77.2,52 77.3,51.8 77.5,51.6 77.7,51.4 77.8,51.2 78.1,51 78.3,50.9 78.5,50.8 78.7,50.7 79,50.6 79.2,50.5 79.5,50.5 79.5,50.5 79.5,50.4 79.5,50.4"/>
            <polygon class="st3" points="81,50.2 81,50.2 81,50.2 80.8,50.3 80.7,50.3 80.6,50.3 80.5,50.3 80.4,50.3 80.2,50.3 80.1,50.3 80,50.3 79.9,50.4 79.8,50.4 79.7,50.4 79.6,50.4 79.5,50.4 79.5,50.4 79.5,50.4 79.5,50.5 79.5,50.5 79.5,50.5 79.6,50.5 79.7,50.5 79.8,50.5 79.9,50.4 80,50.4 80.1,50.4 80.2,50.4 80.4,50.4 80.5,50.4 80.6,50.4 80.7,50.4 80.8,50.3 81,50.3 81,50.3 81,50.3 81,50.2 81,50.2"/>
            <polygon class="st3" points="82.1,50.3 82.1,50.3 82.1,50.3 82,50.3 81.9,50.3 81.7,50.3 81.6,50.3 81.4,50.3 81.2,50.2 81,50.2 81,50.3 81.2,50.3 81.4,50.3 81.6,50.4 81.7,50.4 81.9,50.4 82,50.4 82.1,50.4 82.1,50.4 82.2,50.3 82.1,50.4 82.1,50.4 82.2,50.3 82.1,50.3 82.1,50.3"/>
            <polygon class="st3" points="82.1,49.8 82.1,49.8 82.1,50 82.1,50.1 82.1,50.3 82.1,50.3 82.2,50.3 82.2,50.3 82.2,50.1 82.2,50 82.2,49.8 82.2,49.8 82.1,49.8 82.1,49.8"/>
            <polygon class="st3" points="81.2,49.1 81.2,49.1 81.4,49.1 81.6,49.1 81.7,49.2 81.8,49.3 82,49.4 82,49.5 82.1,49.7 82.1,49.8 82.2,49.8 82.2,49.7 82.1,49.5 82,49.3 81.9,49.2 81.8,49.1 81.6,49.1 81.4,49 81.2,49 81.2,49 81.2,49.1 81.2,49.1"/>
            <polygon class="st3" points="78,49.4 78.1,49.5 78.1,49.5 78.2,49.4 78.4,49.4 78.5,49.3 78.7,49.3 78.9,49.2 79.1,49.2 79.3,49.2 79.6,49.1 79.8,49.1 80.1,49.1 80.3,49.1 80.6,49.1 80.8,49.1 81,49.1 81.2,49.1 81.2,49 81,49 80.8,49 80.6,49 80.3,49 80.1,49 79.8,49 79.6,49 79.3,49.1 79.1,49.1 78.9,49.1 78.7,49.2 78.5,49.2 78.3,49.3 78.2,49.3 78.1,49.4 78,49.4 78.1,49.5 78,49.4 78,49.4"/>
            <polygon class="st3" points="78.5,47.6 78.5,47.6 78,49.4 78.1,49.5 78.6,47.6 78.6,47.7 78.5,47.6 78.5,47.6 78.5,47.6 78.5,47.6 78.5,47.6"/>
            <polygon class="st3" points="81.9,47.2 81.9,47.2 81.7,47.2 81.4,47.2 81.2,47.2 80.9,47.2 80.7,47.2 80.5,47.2 80.2,47.2 80,47.2 79.8,47.3 79.6,47.3 79.4,47.3 79.2,47.4 79.1,47.4 78.9,47.5 78.7,47.5 78.5,47.6 78.6,47.7 78.7,47.6 78.9,47.5 79.1,47.5 79.3,47.5 79.4,47.4 79.6,47.4 79.8,47.4 80,47.3 80.2,47.3 80.5,47.3 80.7,47.3 80.9,47.3 81.2,47.3 81.4,47.3 81.7,47.3 81.9,47.3 81.9,47.3 81.9,47.2 81.9,47.2"/>
            <polygon class="st3" points="84.5,49.8 84.5,49.8 84.6,49.5 84.6,49.2 84.5,48.9 84.4,48.7 84.3,48.5 84.1,48.2 84,48.1 83.8,47.9 83.6,47.7 83.3,47.6 83.1,47.5 82.8,47.4 82.6,47.3 82.4,47.3 82.1,47.2 81.9,47.2 81.9,47.3 82.1,47.3 82.3,47.4 82.6,47.4 82.8,47.5 83.1,47.6 83.3,47.7 83.5,47.8 83.7,48 83.9,48.1 84.1,48.3 84.2,48.5 84.3,48.7 84.4,49 84.5,49.2 84.5,49.5 84.4,49.8 84.4,49.8 84.5,49.8 84.5,49.8"/>
            <polygon class="st3" points="83.7,53.8 83.7,53.8 84.5,49.8 84.4,49.8 83.6,53.8 83.6,53.8 83.7,53.8 83.7,53.8"/>
            <polygon class="st1" points="81.8,51.8 81.8,51.8 81.8,51.7 81.7,51.7 81.7,51.7 81.6,51.7 81.5,51.7 81.4,51.7 81.3,51.7 81.1,51.7 81,51.7 80.9,51.7 80.8,51.7 80.7,51.8 80.6,51.8 80.5,51.8 80.4,51.8 80.3,51.8 80.3,51.9 80.2,51.9 80.1,51.9 80,52 79.9,52 79.8,52.1 79.7,52.1 79.6,52.2 79.5,52.3 79.4,52.4 79.4,52.5 79.3,52.6 79.2,52.7 79.2,52.8 79.2,52.9 79.2,53.2 79.2,53.4 79.3,53.5 79.3,53.7 79.5,53.7 79.6,53.8 79.7,53.8 79.9,53.8 80.1,53.8 80.3,53.8 80.5,53.7 80.7,53.7 80.8,53.6 81,53.6 81.1,53.5 81.2,53.4 81.3,53.3 81.4,53.2 81.5,53.1 81.6,53 81.6,52.9 81.7,52.8 81.7,52.7 81.7,52.7 81.8,52.4 81.8,52.2 81.8,52 81.8,51.8 81.8,51.8"/>
            <polygon class="st3" points="97.5,54.5 97.5,54.3 97.6,54.1 97.7,53.9 97.8,53.7 97.9,53.6 98.1,53.5 98.3,53.4 98.5,53.4 98.8,53.4 98.9,53.5 99.1,53.6 99.3,53.7 99.4,53.9 99.5,54.1 99.6,54.3 99.6,54.5 99.4,54.5 99.4,54.3 99.3,54.1 99.2,54 99.1,53.9 99,53.8 98.9,53.7 98.7,53.6 98.5,53.6 98.4,53.6 98.2,53.7 98.1,53.8 97.9,53.9 97.8,54 97.8,54.1 97.7,54.3 97.7,54.5 97.5,54.5 97.5,54.5"/>
            <polygon class="st3" points="98.2,54.5 98.2,54 98.6,54 98.7,54 98.8,54 98.8,54 98.9,54.1 98.9,54.1 98.9,54.2 98.9,54.2 99,54.3 98.9,54.3 98.9,54.4 98.9,54.4 98.9,54.5 98.6,54.5 98.6,54.4 98.7,54.4 98.7,54.4 98.7,54.4 98.8,54.4 98.8,54.4 98.8,54.3 98.8,54.3 98.8,54.2 98.8,54.2 98.8,54.2 98.7,54.2 98.7,54.2 98.7,54.2 98.6,54.2 98.6,54.2 98.3,54.2 98.3,54.5 98.2,54.5 98.2,54.5"/>
            <polygon class="st3" points="97.5,54.5 97.5,54.5 97.5,54.7 97.6,54.9 97.7,55.1 97.8,55.3 97.9,55.4 98.1,55.5 98.3,55.5 98.5,55.6 98.8,55.5 98.9,55.5 99.1,55.4 99.3,55.3 99.4,55.1 99.5,54.9 99.6,54.7 99.6,54.5 99.6,54.5 99.4,54.5 99.4,54.5 99.4,54.7 99.3,54.8 99.2,55 99.1,55.1 99,55.2 98.9,55.3 98.7,55.4 98.5,55.4 98.4,55.4 98.2,55.3 98.1,55.2 97.9,55.1 97.8,55 97.8,54.8 97.7,54.7 97.7,54.5 97.7,54.5 97.5,54.5 97.5,54.5"/>
            <polygon class="st3" points="98.2,54.5 98.2,54.9 98.3,54.9 98.3,54.5 98.5,54.5 98.8,54.9 98.9,54.9 98.7,54.5 98.7,54.5 98.8,54.5 98.8,54.5 98.9,54.5 98.9,54.5 98.6,54.5 98.5,54.5 98.3,54.5 98.3,54.5 98.2,54.5 98.2,54.5"/>
            <path class="st4" d="M97.5,54.5L97.5,54.5l0-0.2l0.1-0.2l0.1-0.2l0.1-0.2l0.2-0.1l0.2-0.1l0.2-0.1l0.2,0l0,0l0.2,0l0.2,0.1l0.2,0.1l0.2,0.1l0.1,0.2l0.1,0.2l0.1,0.2l0,0.2l0,0l0,0.2l-0.1,0.2l-0.1,0.2l-0.1,0.2l-0.2,0.1l-0.2,0.1l-0.2,0.1l-0.2,0l0,0l-0.2,0l-0.2-0.1l-0.2-0.1l-0.2-0.1l-0.1-0.2l-0.1-0.2l-0.1-0.2L97.5,54.5 M98.3,54.9h-0.2V54h0.4l0,0l0.1,0l0.1,0l0.1,0l0.1,0l0,0l0,0l0,0.1l0,0.1l0,0l0,0.1l0,0.1l0,0l0,0l0,0l0,0l-0.1,0h-0.1l0.2,0.4h-0.2l-0.2-0.4h-0.2V54.9 M98.5,54.5L98.5,54.5L98.5,54.5l0.1,0l0,0l0,0l0,0l0,0l0,0v-0.1l0,0l0,0l0,0l0,0l0,0l0,0l0,0h0h0h-0.2v0.3H98.5 M98.5,55.4L98.5,55.4l0.2,0l0.2-0.1l0.1-0.1l0.1-0.1l0.1-0.1l0.1-0.1l0-0.2l0-0.2l0,0l0-0.2l0-0.2L99.2,54l-0.1-0.1L99,53.8l-0.1-0.1l-0.2-0.1l-0.2,0l0,0l-0.2,0l-0.2,0.1l-0.1,0.1l-0.1,0.1L97.8,54l-0.1,0.2l0,0.2l0,0.2l0,0l0,0.2l0,0.2l0.1,0.1l0.1,0.1l0.1,0.1l0.1,0.1l0.2,0.1L98.5,55.4"/>
            <polygon class="st3" points="84.2,55.5 86.4,55.5 86.4,55.5 87.2,51.2 87.2,51 87.2,50.8 87.3,50.7 87.3,50.5 87.4,50.3 87.5,50.2 87.6,50 87.7,49.9 87.9,49.8 88,49.6 88.2,49.5 88.4,49.4 88.6,49.3 88.8,49.3 89.1,49.2 89.4,49.2 89.5,49.2 89.6,49.2 89.6,49.2 89.6,49.2 89.9,47.3 89.7,47.3 89.5,47.3 89.3,47.4 89.2,47.4 89,47.5 88.8,47.5 88.7,47.6 88.5,47.7 88.4,47.8 88.3,47.9 88.1,48.1 88,48.2 87.9,48.3 87.8,48.4 87.7,48.6 87.6,48.7 87.8,47.4 85.7,47.4 84.2,55.5 84.2,55.5 84.2,55.5"/>
            <polyline class="st4" points="84.2,55.5 86.4,55.5 86.4,55.5 87.2,51.2 87.2,51.2 87.2,51 87.2,50.8 87.3,50.7 87.3,50.5 87.4,50.3 87.5,50.2 87.6,50 87.7,49.9 87.9,49.8 88,49.6 88.2,49.5 88.4,49.4 88.6,49.3 88.8,49.3 89.1,49.2 89.4,49.2 89.4,49.2 89.5,49.2 89.6,49.2 89.6,49.2 89.6,49.2 89.9,47.3 89.9,47.3 89.7,47.3 89.5,47.3 89.3,47.4 89.2,47.4 89,47.5 88.8,47.5 88.7,47.6 88.5,47.7 88.4,47.8 88.3,47.9 88.1,48.1 88,48.2 87.9,48.3 87.8,48.4 87.7,48.6 87.6,48.7 87.8,47.4 85.7,47.4 84.2,55.5 84.2,55.5"/>
            <polygon class="st3" points="64.1,55.5 66.3,55.5 66.3,55.5 67.1,51.2 67.1,51 67.1,50.8 67.2,50.7 67.2,50.5 67.3,50.4 67.3,50.2 67.4,50.1 67.5,50 67.7,49.9 67.8,49.7 68,49.7 68.2,49.6 68.4,49.5 68.6,49.4 68.9,49.4 69.2,49.4 69.2,49.4 69.2,49.4 69.2,49.4 69.3,49.4 69.3,49.4 69.4,49.4 69.4,49.4 69.4,49.4 69.4,49.4 69.4,49.3 69.4,49.2 69.5,49 69.5,48.8 69.6,48.6 69.7,48.4 69.7,48.2 69.8,48 69.9,47.9 69.9,47.7 70,47.6 70.1,47.5 70.1,47.4 70.2,47.3 70.2,47.3 70.2,47.3 70.2,47.3 70.1,47.3 70.1,47.3 70,47.3 69.9,47.3 69.9,47.3 69.8,47.3 69.6,47.3 69.4,47.3 69.2,47.4 69,47.4 68.8,47.5 68.7,47.5 68.5,47.6 68.4,47.7 68.3,47.8 68.1,47.9 68,48 67.9,48.2 67.8,48.3 67.7,48.4 67.6,48.6 67.5,48.7 67.7,47.4 65.6,47.4 64.1,55.5 64.1,55.5 64.1,55.5"/>
            <polyline class="st4" points="64.1,55.5 66.3,55.5 66.3,55.5 67.1,51.2 67.1,51.2 67.1,51 67.1,50.8 67.2,50.7 67.2,50.5 67.3,50.4 67.3,50.2 67.4,50.1 67.5,50 67.7,49.9 67.8,49.7 68,49.7 68.2,49.6 68.4,49.5 68.6,49.4 68.9,49.4 69.2,49.4 69.2,49.4 69.2,49.4 69.2,49.4 69.2,49.4 69.3,49.4 69.3,49.4 69.4,49.4 69.4,49.4 69.4,49.4 69.4,49.4 69.4,49.4 69.4,49.3 69.4,49.2 69.5,49 69.5,48.8 69.6,48.6 69.7,48.4 69.7,48.2 69.7,48.2 69.8,48 69.9,47.9 69.9,47.7 70,47.6 70.1,47.5 70.1,47.4 70.2,47.3 70.2,47.3 70.2,47.3 70.2,47.3 70.2,47.3 70.1,47.3 70.1,47.3 70,47.3 69.9,47.3 69.9,47.3 69.8,47.3 69.8,47.3 69.6,47.3 69.4,47.3 69.2,47.4 69,47.4 68.8,47.5 68.7,47.5 68.5,47.6 68.4,47.7 68.3,47.8 68.1,47.9 68,48 67.9,48.2 67.8,48.3 67.7,48.4 67.6,48.6 67.5,48.7 67.7,47.4 65.6,47.4 64.1,55.5 64.1,55.5"/>
            <polygon class="st1" points="97.5,63.5 97.5,63.4 97.6,63.2 97.7,63.1 97.8,62.9 97.9,62.8 98.1,62.7 98.3,62.7 98.5,62.6 98.8,62.7 98.9,62.7 99.1,62.8 99.3,62.9 99.4,63.1 99.5,63.2 99.6,63.4 99.6,63.5 99.4,63.5 99.3,63.3 99.2,63.2 99.1,63 99,62.9 98.9,62.9 98.7,62.8 98.5,62.8 98.4,62.8 98.2,62.9 98.1,62.9 97.9,63 97.8,63.2 97.8,63.3 97.7,63.5 97.5,63.5 97.5,63.5"/>
            <polygon class="st1" points="98.2,63.5 98.2,63.2 98.6,63.2 98.7,63.2 98.8,63.2 98.8,63.2 98.9,63.3 98.9,63.3 98.9,63.4 98.9,63.4 99,63.5 98.8,63.5 98.8,63.4 98.8,63.4 98.8,63.4 98.8,63.4 98.7,63.3 98.7,63.3 98.7,63.3 98.6,63.3 98.6,63.3 98.3,63.3 98.3,63.5 98.2,63.5 98.2,63.5"/>
            <polygon class="st1" points="97.5,63.6 97.5,63.5 97.7,63.5 97.7,63.5 97.7,63.6 97.5,63.6 97.5,63.6"/>
            <polygon class="st1" points="98.2,63.6 98.2,63.5 98.3,63.5 98.3,63.6 98.5,63.6 98.6,63.6 98.7,63.6 98.7,63.6 98.7,63.6 98.8,63.6 98.8,63.5 98.8,63.5 98.8,63.5 99,63.5 99,63.5 98.9,63.5 98.9,63.6 98.9,63.6 98.9,63.6 98.2,63.6 98.2,63.6"/>
            <polygon class="st1" points="99.4,63.6 99.4,63.5 99.4,63.5 99.6,63.5 99.6,63.6 99.4,63.6 99.4,63.6"/>
            <polygon class="st1" points="97.5,63.6 97.5,63.7 97.5,63.9 97.6,64.1 97.7,64.3 97.8,64.4 97.9,64.6 98.1,64.7 98.3,64.7 98.5,64.7 98.8,64.7 98.9,64.7 99.1,64.6 99.3,64.4 99.4,64.3 99.5,64.1 99.6,63.9 99.6,63.7 99.6,63.6 99.4,63.6 99.4,63.7 99.4,63.8 99.3,64 99.2,64.2 99.1,64.3 99,64.4 98.9,64.5 98.7,64.5 98.5,64.5 98.4,64.5 98.2,64.5 98.1,64.4 97.9,64.3 97.8,64.2 97.8,64 97.7,63.8 97.7,63.7 97.7,63.6 97.5,63.6 97.5,63.6"/>
            <polygon class="st1" points="98.2,63.6 98.2,64.1 98.3,64.1 98.3,63.7 98.5,63.7 98.8,64.1 98.9,64.1 98.7,63.7 98.7,63.7 98.8,63.7 98.8,63.7 98.9,63.6 98.9,63.6 98.2,63.6 98.2,63.6"/>
            <path class="st3" d="M64.4,49.8l-0.1-0.5l-0.1-0.4l-0.2-0.3l-0.2-0.3L63.6,48l-0.2-0.2l-0.3-0.2l-0.3-0.1l-0.3-0.1l-0.3-0.1l-0.3-0.1l-0.3,0l-0.3,0l-0.6,0l-0.5,0.1l-0.5,0.1l-0.4,0.2l-0.4,0.2l-0.3,0.3l-0.3,0.3l-0.2,0.3L57.7,49l-0.2,0.3l-0.1,0.3L57.3,50l-0.1,0.3l-0.1,0.3l0,0.3l0,0.2l0,0.6l0,0.6l0.1,0.5l0.1,0.4l0.2,0.4l0.2,0.3l0.3,0.3l0.3,0.3l0.3,0.2l0.3,0.2l0.4,0.1l0.4,0.1l0.4,0.1l0.4,0.1l0.4,0l0.4,0h0.2l0.2,0h0.2l0.2,0l0.2,0l0.2,0l0.2,0l0.1,0l0.1,0l0.1,0l0.1,0l0.1,0l0.1,0l0.1,0l0.1-0.1l0.1-0.1l0.3-1.9l-0.2,0.1l-0.2,0.1l-0.2,0.1l-0.2,0.1l-0.2,0.1l-0.2,0l-0.2,0l-0.2,0l-0.2,0l-0.2,0h-0.2l-0.2,0l-0.2,0l-0.2,0l-0.2,0l-0.2,0l-0.2,0l-0.2-0.1l-0.2-0.1L60,53.5l-0.1-0.1l-0.1-0.1l-0.1-0.1L59.6,53l-0.1-0.1l-0.1-0.1l-0.1-0.1l-0.1-0.1l0-0.1l0-0.1l0-0.1l0-0.1h4.9l0-0.5l0.1-0.6l0.1-0.6L64.4,49.8z M62.3,50.5h-2.8l0,0l0,0l0-0.1l0-0.2l0-0.2l0.1-0.2l0.1-0.1l0.1-0.1l0.1-0.1l0.1-0.1l0.1-0.1l0.1-0.1l0.1-0.1l0.1-0.1l0.1-0.1l0.1,0l0.1,0l0.1,0l0.1,0l0.1,0l0.1,0l0.1,0l0.1,0l0.1,0.1l0.1,0.1l0.1,0.1l0.1,0.1l0.1,0.1l0.1,0.1l0.1,0.1l0.1,0.1l0,0.2l0,0.2l0,0.2L62.3,50.5z"/>
        </g>
    </g>
</svg>
