<?xml version="1.0" encoding="utf-8"?>
<svg version="1.1" id="Layer_1" xmlns="http://www.w3.org/2000/svg" xmlns:xlink="http://www.w3.org/1999/xlink" x="0px" y="0px" viewBox="0 0 127 100" style="enable-background:new 0 0 127 100;" xml:space="preserve">
    <defs>
        <style>
            .st0{fill:#0078A9;}
            .st1{fill:#FFFFFF;}
        </style>
    </defs>
    <g>
        <path class="st0" d="M126.3,85.2c0,2.3-1.9,4.2-4.2,4.2H5c-2.3,0-4.2-1.9-4.2-4.2v-70C0.8,12.8,2.7,11,5,11h117.1c2.3,0,4.2,1.9,4.2,4.2V85.2z"/>
        <g>
            <path class="st1" d="M39.7,48.3v-1.3l-0.6,1.3h-5.2L33.3,47v1.3h-9.7l-1.1-2.7h-1.9l-1.2,2.7h-5v-8.2l3.7-8.3H25l1,2.4v-2.3h8.6l1.9,4l1.9-4h27.3c0,0,1.4,0,2.4,0.6l0-0.6h6.9v0.9c0,0,1.2-0.9,3.1-0.9s12.1,0,12.1,0l1.1,2.4v-2.4h7.8l1.4,2.4v-2.4h7.4v16.6h-7.6l-1.8-2.9v2.9h-9.5l-1.3-3h-1.9l-1.2,3h-5.7c0,0-2.1,0-3.7-1.2c0,0.6,0,1.2,0,1.2H63.5c0,0,0-3.3,0-3.9c0-0.6-0.4-0.5-0.4-0.5h-0.4v4.4H39.7z"/>
            <path class="st1" d="M34,51.9h15l2.2,2.5l2.2-2.5H65c0,0,1.1,0,2.1,0.6v-0.6c0,0,9,0,10.3,0c1.3,0,2.4,0.7,2.4,0.7v-0.7H93v0.6c0,0,0.9-0.6,2.2-0.6c1.3,0,8.6,0,8.6,0v0.6c0,0,1.1-0.6,2.2-0.6c1.1,0,6.8,0,6.8,0v15.6c0,0-0.9,1-2.7,1h-8.9V68c0,0-0.8,0.5-2.1,0.5c-1.3,0-23.7,0-23.7,0s0-3.6,0-4c0-0.4-0.2-0.5-0.5-0.5h-0.3v4.5h-7.4V64c0,0-0.8,0.4-2.2,0.4c-1.4,0-2.7,0-2.7,0v4h-9.1L51.1,66l-2.2,2.5H34V51.9z"/>
            <polygon class="st0" points="81.4,54.4 90.8,54.4 90.8,56.9 84.2,56.9 84.2,59.1 90.6,59.1 90.6,61.4 84.2,61.4 84.2,63.7 90.8,63.7 90.8,66.1 81.4,66.1"/>
            <path class="st0" d="M109,59c3.5,0.2,3.8,2,3.8,3.8c0,2.2-1.8,3.4-3.7,3.4h-6.1v-2.5h4.7c0.8,0,2,0,2-1.1c0-0.5-0.2-0.9-1.1-1c-0.4-0.1-1.8-0.1-2-0.1c-3.2-0.1-3.9-1.7-3.9-3.6c0-2.2,1.5-3.4,3.4-3.4h6.1v2.5h-4.4c-1,0-2.1-0.1-2.1,1c0,0.7,0.5,0.9,1.2,0.9C107.2,58.9,108.8,59,109,59z"/>
            <path class="st0" d="M98.1,59c3.5,0.2,3.8,2,3.8,3.8c0,2.2-1.8,3.4-3.7,3.4h-6.1v-2.5h4.7c0.8,0,2,0,2-1.1c0-0.5-0.2-0.9-1.1-1c-0.4-0.1-1.8-0.1-2-0.1c-3.2-0.1-3.9-1.7-3.9-3.6c0-2.2,1.5-3.4,3.4-3.4h6.1v2.5H97c-1,0-2.1-0.1-2.1,1c0,0.7,0.5,0.9,1.2,0.9C96.4,58.9,97.9,59,98.1,59z"/>
            <path class="st0" d="M64,54.4H53.8l-3.3,3.6l-3.2-3.7H36v11.7h11l3.5-3.9l3.4,3.9h5.5v-4h3.9c1.5,0,4.2-0.1,4.2-4.2C67.5,55.1,65.4,54.4,64,54.4z M45.5,63.7h-6.6v-2.3h6.4v-2.2h-6.4v-2.2l7,0l2.8,3.2L45.5,63.7z M56.5,65l-4.1-4.9l4.1-4.6V65z M63,59.8h-3.6v-2.8H63c1.2,0,1.6,0.8,1.6,1.3C64.6,59.1,64.2,59.8,63,59.8z"/>
            <path class="st0" d="M77.9,60.8c1.6-0.8,2-1.8,2-3.2c0-2.5-2-3.1-3.5-3.1h-7.5v11.7h2.9V62h3.8c1,0,1.4,1,1.4,2l0.1,2.2h2.8l-0.1-2.4C79.8,61.9,79.3,61,77.9,60.8z M75.4,59.6h-3.6v-2.7h3.6c1.2,0,1.6,0.8,1.6,1.3C77,59.1,76.6,59.6,75.4,59.6z"/>
            <rect x="70.1" y="34.1" class="st0" width="2.9" height="11.8"/>
            <polygon class="st0" points="46.5,34.1 55.9,34.1 55.9,36.7 49.4,36.7 49.4,38.9 55.7,38.9 55.7,41.1 49.4,41.1 49.4,43.4 55.9,43.4 55.9,45.9 46.5,45.9"/>
            <path class="st0" d="M66.6,40.5c1.6-0.8,2-1.8,2-3.2c0-2.5-2-3.1-3.5-3.1h-7.5v11.7h2.9v-4.1h3.8c1,0,1.4,1,1.4,2l0.1,2.2h2.8l-0.1-2.4C68.5,41.6,67.9,40.7,66.6,40.5z M64.1,39.3h-3.6v-2.7h3.6c1.2,0,1.6,0.8,1.6,1.3C65.7,38.8,65.3,39.3,64.1,39.3z"/>
            <path class="st0" d="M39.8,34.1L36.3,42l-3.5-7.9h-4.5v11.3l-5-11.3h-3.8l-5.1,11.7h3l1.1-2.6h5.8l1.1,2.6h5.8v-8.7l3.9,8.7h2.6l3.9-8.6v8.6h2.9V34.1H39.8z M19.5,40.7l1.7-4.1l1.8,4.1H19.5z"/>
            <path class="st0" d="M102.7,34.1v8.1l-4.9-8.1h-4.3v11l-4.9-11h-3.8l-4,9.1c0,0-1.7,0-1.8,0c-0.7-0.1-1.8-0.6-1.8-2.7v-0.9c0-2.8,1.5-3,3.4-3h1.8v-2.6h-3.8c-1.3,0-4.2,1-4.3,5.8c-0.1,3.2,1.3,5.9,4.5,5.9h3.8l1.1-2.6h5.8l1.1,2.6h5.7v-8.6l5.2,8.6h3.9V34.1H102.7z M85,40.7l1.7-4.1l1.8,4.1H85z"/>
        </g>
    </g>
</svg>
