<?xml version="1.0" encoding="UTF-8"?>
<svg width="127px" height="79px" viewBox="0 0 127 79" version="1.1" xmlns="http://www.w3.org/2000/svg" xmlns:xlink="http://www.w3.org/1999/xlink">
    <!-- Generator: Sketch 44.1 (41455) - http://www.bohemiancoding.com/sketch -->
    <title>cc_pp_bank_2x4</title>
    <desc>Created with Sketch.</desc>
    <defs></defs>
    <g id="Page-1" stroke="none" stroke-width="1" fill="none" fill-rule="evenodd">
        <g id="cc_pp_bank_2x4" fill-rule="nonzero">
            <path d="M117.931266,0 L8.94657902,0 C4.0078125,0.00536124887 0.00553053881,3.88513325 -1.13686838e-13,8.67272399 L-1.13686838e-13,70.327276 C0.00553053881,75.1148667 4.0078125,78.9946388 8.94657902,79 L117.931266,79 C122.869953,78.9944543 126.872124,75.1147902 126.877845,70.327276 L126.877845,8.67272399 C126.872124,3.88520978 122.869953,0.00554571001 117.931266,0 Z" id="Shape" fill="#003087"></path>
            <path d="M27.389782,26.7831805 C26.0233497,25.8727516 24.2406203,25.4170899 22.041594,25.4161953 L13.5260191,25.4161953 C12.8518002,25.4161953 12.4792207,25.742874 12.4082807,26.3962314 L8.94952044,47.444448 C8.91251575,47.6473013 8.97103404,47.8555671 9.10904905,48.0122081 C9.23342312,48.1759559 9.43134072,48.2718544 9.64109946,48.2700064 L13.6864128,48.2700064 C14.3958134,48.2700064 14.786272,47.9433277 14.8577888,47.2899703 L15.8163447,41.615724 C15.8448489,41.3530813 15.9791621,41.1119667 16.1900777,40.944811 C16.4205137,40.7652548 16.6966939,40.6493559 16.989451,40.6093546 C17.2884161,40.5597639 17.5910644,40.5339596 17.8943692,40.5321996 C18.1781294,40.5321996 18.5155272,40.5494197 18.9065627,40.5838599 C19.2975981,40.6183001 19.5461767,40.6350729 19.6522984,40.6341783 C22.7032975,40.6341783 25.0985336,39.8002335 26.8380068,38.1323439 C28.57748,36.4644544 29.4466399,34.1517615 29.4454864,31.1942654 C29.4454864,29.1658719 28.7626163,27.6960134 27.396876,26.78469 L27.389782,26.7831805 Z M22.9994578,33.1031805 C22.8214732,34.3070219 22.3600745,35.0980283 21.6152616,35.4761996 C20.8704487,35.8543708 19.8061172,36.0435683 18.422267,36.0437919 L16.665549,36.0954522 L17.5704673,30.574845 C17.5975271,30.2350739 17.9033814,29.9807663 18.2539142,30.0065817 L19.2730286,30.0065817 C20.6918297,30.0065817 21.7207489,30.2042774 22.3597861,30.5996688 C22.9988233,30.9950602 23.2110668,31.8293404 22.9965163,33.1025096 L22.9994578,33.1031805 Z" id="Shape" fill="#FFFFFF"></path>
            <path d="M117.247127,25.4163631 L113.309435,25.4163631 C112.959281,25.3859087 112.649927,25.6363137 112.618375,25.9757367 L112.618375,25.9841231 L109.159614,47.4449512 L109.105977,47.5479363 C109.11058,47.7315328 109.186599,47.906658 109.318797,48.0382059 C109.451529,48.1891302 109.647166,48.2742876 109.851713,48.2701741 L113.36411,48.2701741 C114.037752,48.2701741 114.410332,47.9434954 114.481849,47.290138 L117.940609,26.1899257 L117.940609,26.1386008 C117.940609,25.6566617 117.70991,25.4156921 117.248511,25.4156921 L117.247127,25.4163631 Z" id="Shape" fill="#009CDE"></path>
            <path d="M69.6705736,33.7217622 C69.6652914,33.5383905 69.5892222,33.3636152 69.4574074,33.2319958 C69.3414112,33.0900131 69.1666151,33.0049834 68.9798597,32.9996921 L64.882639,32.9996921 C64.493162,32.999692 64.1313208,33.1947378 63.9258134,33.5154565 L58.2852139,41.5637282 L55.9424619,33.8254183 C55.8131287,33.3093621 55.3173747,32.9599663 54.7710858,32.9998599 L50.7794101,32.9998599 C50.5924638,33.0045678 50.4174051,33.0897868 50.3018624,33.2323312 C50.1697416,33.3637248 50.0937239,33.5386657 50.0890422,33.7220977 C50.0890422,33.7914253 50.4350913,34.8058457 51.1271894,36.7653588 C51.8192875,38.7248719 52.5644464,40.8401486 53.3626662,43.111189 C54.160886,45.3811111 54.5778751,46.5844494 54.6136335,46.7212038 C51.7045145,50.5736978 50.249955,52.6373142 50.249955,52.9120531 C50.249955,53.3593284 50.4806544,53.582966 50.9420531,53.582966 L55.0392738,53.582966 C55.4293578,53.5836799 55.7920273,53.388604 55.9978297,53.0673694 L69.5681431,34.0822102 C69.6499229,33.9796686 69.6877307,33.8504907 69.673688,33.7215945 L69.6705736,33.7217622 Z" id="Shape" fill="#FFFFFF"></path>
            <path d="M107.827672,32.9996921 L103.782877,32.9996921 C103.285951,32.9996921 102.9846,33.5673404 102.878824,34.7026369 C101.956027,33.3272654 100.270768,32.6395796 97.8230477,32.6395796 C95.2692057,32.6395796 93.0965945,33.568235 91.3052139,35.4255456 C89.5555908,37.1812847 88.5901609,39.5346593 88.6181431,41.9756688 C88.6181431,44.0051805 89.2300731,45.6215216 90.4539332,46.8246921 C91.6777934,48.0278627 93.3192193,48.6297834 95.3782112,48.6304544 C96.4562269,48.6209124 97.5223256,48.4108029 98.5186063,48.0115372 C99.4794732,47.6681492 100.338621,47.101224 101.020541,46.3605881 C100.993965,46.5170114 100.958733,46.6719363 100.914996,46.8246921 C100.856005,47.0265129 100.820601,47.2341219 100.809451,47.4436093 C100.809451,47.9946525 101.04015,48.2698386 101.501549,48.2691677 L105.173129,48.2691677 C105.846772,48.2691677 106.23723,47.942489 106.344505,47.2891316 L108.526345,33.8239087 C108.562846,33.6208727 108.50454,33.4126021 108.367162,33.25531 C108.242382,33.0915202 108.044284,32.995503 107.834247,32.9970085 L107.827672,32.9996921 Z M100.882813,43.1628493 C100.018463,44.0066436 98.8365698,44.4723196 97.6100545,44.4523439 C96.5806739,44.4523439 95.7469264,44.1772696 95.108812,43.627121 C94.4706975,43.0769724 94.151352,42.3202944 94.1507752,41.357087 C94.1231605,40.1515915 94.6036454,38.9872694 95.4813338,38.1328471 C96.3424462,37.2653856 97.5393732,36.7877627 98.7809114,36.8161805 C99.6869619,36.7858648 100.571161,37.0897575 101.255162,37.6665626 C101.912655,38.2334841 102.240941,39.0162159 102.240018,40.014758 C102.261232,41.2011266 101.768583,42.3418157 100.881775,43.1596624 L100.882813,43.1628493 Z" id="Shape" fill="#009CDE"></path>
            <path d="M47.3723842,32.9996921 L43.328109,32.9996921 C42.8307212,32.9996921 42.5290817,33.5673404 42.4231907,34.7026369 C41.4652116,33.3272654 39.7799528,32.6395796 37.3674142,32.6395796 C34.8129955,32.6395796 32.6399228,33.568235 30.8481962,35.4255456 C29.0983196,37.1813552 28.1327528,39.5349415 28.1607793,41.976172 C28.1607793,44.0056837 28.7728247,45.6220248 29.9969155,46.8251953 C31.2210064,48.0283659 32.8618556,48.6302866 34.9194632,48.6309575 C35.979832,48.617149 37.0276472,48.4064852 38.0062207,48.0103631 C38.9774113,47.6585003 39.8514755,47.0936276 40.5600627,46.3599172 C40.4301187,46.7078314 40.3581621,47.0735869 40.3468965,47.4434416 C40.3468965,47.9935902 40.5775958,48.2686645 41.0389946,48.2686645 L44.7116131,48.2686645 C45.3852552,48.2686645 45.7757139,47.9421536 45.8829891,47.2891316 L48.0648283,33.8239087 C48.1011145,33.6208004 48.0426236,33.4125505 47.9051267,33.25531 C47.7804214,33.091434 47.5822748,32.9953934 47.3722112,32.9970085 L47.3723842,32.9996921 Z M40.4271798,43.1883439 C39.538425,44.0253239 38.339878,44.4808081 37.1011294,44.4523439 C36.0716335,44.4523439 35.2468833,44.1772696 34.6268787,43.627121 C34.0068742,43.0769724 33.6964105,42.3202944 33.6954877,41.357087 C33.6677924,40.1515774 34.1482895,38.9872258 35.0260463,38.1328471 C35.8871343,37.2653507 37.0840778,36.7877212 38.325624,36.8161805 C39.2316744,36.7858648 40.1158731,37.0897575 40.7998747,37.6665626 C41.4573678,38.2334841 41.7855377,39.0162159 41.7843842,40.014758 C41.8172671,41.2107547 41.3240786,42.3639076 40.4278719,43.1864989 L40.4271798,43.1883439 Z" id="Shape" fill="#FFFFFF"></path>
            <path d="M87.8445504,26.7831805 C86.4782334,25.8727516 84.6955041,25.4170899 82.4963624,25.4161953 L74.0354632,25.4161953 C73.3254859,25.4161953 72.9350272,25.742874 72.8640872,26.3962314 L69.405327,47.444448 C69.3683235,47.6472768 69.4269144,47.8555136 69.5650286,48.0120403 C69.6896052,48.1754102 69.8875175,48.2708694 70.097079,48.2686645 L74.4607575,48.2686645 C74.8863978,48.2686645 75.1702734,48.0450269 75.3123842,47.5977516 L76.270421,41.6132081 C76.2985987,41.3507385 76.4324648,41.1096452 76.6429428,40.9422951 C76.8730854,40.7629039 77.1488849,40.6470143 77.4412779,40.6068386 C77.7402415,40.5572361 78.0428908,40.5314317 78.3461962,40.5296837 C78.6296104,40.5296837 78.9664314,40.5470156 79.3566594,40.5816794 C79.7471757,40.6152251 79.996158,40.6319979 80.101876,40.6319979 C83.1540286,40.6319979 85.5492648,39.7978294 87.2875845,38.1294926 C89.0259042,36.4611557 89.895064,34.1481833 89.895064,31.1905754 C89.895064,29.1621819 89.2121939,27.6917643 87.8464537,26.7793227 L87.8445504,26.7831805 Z M82.3894332,35.2702293 C81.6085159,35.7859377 80.4377166,36.0437919 78.8770354,36.0437919 L77.173955,36.0954522 L78.0771431,30.5755159 C78.0899622,30.4122473 78.169178,30.2606066 78.2973563,30.1539677 C78.4255345,30.0473289 78.5921704,29.9944314 78.7605899,30.0069172 L79.7260668,30.0069172 C80.3489803,29.9975946 80.9717713,30.0320693 81.5895409,30.1100701 C82.0877084,30.1967215 82.5496171,30.4205482 82.9200995,30.7548174 C83.3457398,31.1171104 83.5585599,31.6420998 83.5585599,32.3297856 C83.5585599,33.7744848 83.1681013,34.7551359 82.3871839,35.2717389 L82.3894332,35.2702293 Z" id="Shape" fill="#009CDE"></path>
        </g>
    </g>
</svg>