<svg xmlns="http://www.w3.org/2000/svg" width="32.213" height="32.213" viewBox="0 0 32.213 32.213"><path d="M10.664,27.77a3.221,3.221,0,1,0,3.221,3.221A3.217,3.217,0,0,0,10.664,27.77ZM1,2V5.221H4.221l5.8,12.225L7.845,21.392a3.114,3.114,0,0,0-.4,1.546,3.231,3.231,0,0,0,3.221,3.221H29.991V22.938H11.34a.4.4,0,0,1-.4-.4l.048-.193,1.45-2.625h12a3.206,3.206,0,0,0,2.819-1.659L33.019,7.6a1.574,1.574,0,0,0,.193-.773A1.615,1.615,0,0,0,31.6,5.221H7.781L6.267,2H1ZM26.77,27.77a3.221,3.221,0,1,0,3.221,3.221A3.217,3.217,0,0,0,26.77,27.77Z" transform="translate(-1 -2)"/></svg>