<?xml version="1.0" encoding="utf-8"?>
<svg version="1.1" id="Layer_1" xmlns="http://www.w3.org/2000/svg" xmlns:xlink="http://www.w3.org/1999/xlink" x="0px" y="0px" viewBox="0 0 127 100" style="enable-background:new 0 0 127 100;" xml:space="preserve">
    <defs>
        <style>
            .st0{fill:#3957A7;}
            .st1{fill:#FFFFFF;}
            .st2{fill:#F9A533;}
        </style>
    </defs>
    <g>
        <path class="st0" d="M126,84.9c0,2.3-1.9,4.2-4.2,4.2H4.7c-2.3,0-4.2-1.9-4.2-4.2v-70c0-2.3,1.9-4.2,4.2-4.2h117.1c2.3,0,4.2,1.9,4.2,4.2V84.9z"/>
        <g>
            <polygon class="st1" points="58.3,61.6 52.2,61.6 56,38.1 62.1,38.1"/>
            <path class="st1" d="M47,38.1l-5.8,16.2l-0.7-3.5v0l-2.1-10.6c0,0-0.2-2.1-2.9-2.1h-9.7l-0.1,0.4c0,0,3,0.6,6.4,2.7l5.3,20.4h6.4l9.8-23.5H47z"/>
            <path class="st1" d="M95.2,61.6h5.6l-4.9-23.5H91c-2.3,0-2.8,1.8-2.8,1.8L79,61.6h6.4l1.3-3.5h7.8L95.2,61.6z M88.5,53.3l3.2-8.8l1.8,8.8H88.5z"/>
            <path class="st1" d="M79.5,43.7l0.9-5.1c0,0-2.7-1-5.5-1c-3,0-10.3,1.3-10.3,7.8c0,6.1,8.5,6.2,8.5,9.3c0,3.2-7.6,2.6-10.1,0.6l-0.9,5.3c0,0,2.7,1.3,6.9,1.3c4.2,0,10.5-2.2,10.5-8.1c0-6.1-8.6-6.7-8.6-9.3C70.9,42,76.9,42.3,79.5,43.7z"/>
        </g>
        <path class="st2" d="M40.5,50.8l-2.1-10.6c0,0-0.2-2.1-2.9-2.1h-9.7l-0.1,0.4c0,0,4.6,1,9.1,4.6C39.1,46.5,40.5,50.8,40.5,50.8z"/>
    </g>
</svg>
