<svg xmlns="http://www.w3.org/2000/svg" width="15.357" height="10.752" viewBox="0 0 15.357 10.752"><g transform="translate(-0.001)"><path d="M7.678,0A46.713,46.713,0,0,0,1.67.316,1.964,1.964,0,0,0,.316,1.683,20.273,20.273,0,0,0,0,5.376,20.2,20.2,0,0,0,.316,9.07,1.925,1.925,0,0,0,1.67,10.423a45.028,45.028,0,0,0,6.008.329,46.719,46.719,0,0,0,6.009-.316,1.925,1.925,0,0,0,1.354-1.354,20.273,20.273,0,0,0,.316-3.694,19.249,19.249,0,0,0-.316-3.706A1.925,1.925,0,0,0,13.687.329,44.938,44.938,0,0,0,7.678,0ZM6.148,3.074l4,2.3-4,2.3Z" transform="translate(0 0)" fill="#fff"/></g></svg>